<?xml version="1.0" encoding="utf-8"?>
<!DOCTYPE svg PUBLIC "-//W3C//DTD SVG 1.1//EN" "http://www.w3.org/Graphics/SVG/1.1/DTD/svg11.dtd">
<svg version="1.1" id="link" xmlns="http://www.w3.org/2000/svg" xmlns:xlink="http://www.w3.org/1999/xlink" x="0px" y="0px"
	 viewBox="0 0 512 512"  width="512px" height="512px" enable-background="new 0 0 512 512" xml:space="preserve">
<g>
	<g>
		<path fill="#FFFFFF" d="M257,512C115.8,512,1,397.2,1,256S115.8,0,257,0s256,114.8,256,256C513,397.2,398.2,512,257,512z
			 M257,29.2C132,29.2,30.3,131,30.3,256S132,482.7,257,482.7S483.7,381,483.7,256S382,29.2,257,29.2z"/>
	</g>
	<g>
		<path fill="#FFFFFF" d="M259,217.9c-1.3-0.5-2.7-0.8-4.1-0.8c-4.6,0-8.7,2.8-10.4,6.9c-2.2,5.6,0.6,12.2,6.1,14.4
			c5.4,2.3,10,5.3,13.7,9c16.1,16.1,16.1,42.4,0,58.5l-37.1,37.1c-7.9,7.9-18,12-29.3,12c-10.8,0-21.3-4.3-29.3-12
			c-7.8-7.8-12.1-18.2-12.1-29.3c0-11.1,4.3-21.5,12.1-29.3l37.1-37.1c4.4-4.4,4.4-11.3,0-15.7c-2.1-2.1-4.9-3.3-7.8-3.3
			c-2.9,0-5.7,1.2-7.8,3.3L153,269c-11.9,11.9-18.5,27.9-18.5,44.9s6.6,33,18.5,44.9c12,12,28,18.6,44.9,18.6
			c17,0,32.9-6.6,44.9-18.6l37.1-37.1c12.1-11.9,18.7-27.9,18.7-45c0-17.1-6.7-33-18.7-44.9C274,226,267,221.3,259,217.9z"/>
		<path fill="#FFFFFF" d="M358.8,153.1c-12-12-28-18.6-44.9-18.6c-17,0-32.9,6.6-44.9,18.6l-37.1,37.1
			c-12.1,11.9-18.7,27.9-18.7,44.9s6.7,33,18.7,44.9c5.7,5.7,12.4,10.3,19.9,13.5c1.8,1.2,4.2,1.3,5.3,1.3c4.6,0,8.3-2.5,10.2-6.9
			l0-0.1c1.1-2.7,1-5.7-0.1-8.5c-1.2-2.8-3.3-4.9-6-6l-0.1,0c-4.7-1.7-9.4-4.8-13.5-9c-16.1-16.1-16.1-42.4,0-58.5l37-37
			c8.1-7.8,18.5-12.1,29.3-12.1c11.3,0,21.4,4.2,29.3,12c16.1,16.1,16.1,42.4,0,58.5L306,264.4c-2.1,2.1-3.3,4.9-3.3,7.8
			s1.2,5.7,3.3,7.8c2.1,2.1,4.9,3.3,7.8,3.3s5.7-1.2,7.8-3.3l37.1-37.1c12.1-11.9,18.7-27.9,18.7-44.9S370.8,165,358.8,153.1z"/>
	</g>
</g>
</svg>
