<?xml version="1.0" encoding="utf-8"?>
<!-- Generator: Adobe Illustrator 17.0.0, SVG Export Plug-In . SVG Version: 6.00 Build 0)  -->
<!DOCTYPE svg PUBLIC "-//W3C//DTD SVG 1.1//EN" "http://www.w3.org/Graphics/SVG/1.1/DTD/svg11.dtd">
<svg version="1.1" id="mrs-logo" xmlns="http://www.w3.org/2000/svg" xmlns:xlink="http://www.w3.org/1999/xlink" x="0px" y="0px"
	 width="139.628px" height="100px" viewBox="0 0 139.628 100" enable-background="new 0 0 139.628 100" xml:space="preserve">
<polygon fill="#f0141e" points="69.743,0.135 0.189,25.025 9.116,66.255 69.743,99.865 130.918,66.255 139.439,25.025 "/>
<polygon fill="#c40d15" points="69.905,0.135 69.905,11.205 69.905,11.155 69.905,61.668 69.905,61.668 69.905,99.865
	69.905,99.865 130.918,66.255 139.439,25.025 "/>
<g>
	<path fill="#FFFFFF" d="M7.269,76.854V11.228h15.896l7,43.75l7.547-43.75h15.349v65.626h-9.771l-0.292-46.157
		c-0.729,4.74-2.005,12.432-3.828,23.078c-1.823,10.646-3.099,18.339-3.828,23.078h-9.917l-8.057-46.448l-0.292,46.448L7.269,76.854
		L7.269,76.854z"/>
	<path fill="#FFFFFF" d="M60.863,76.854V11.228h14.438c3.281,0,6.167,0.31,8.659,0.93c2.491,0.62,4.672,1.592,6.544,2.917
		c1.871,1.325,3.293,3.112,4.266,5.359c0.972,2.248,1.458,4.94,1.458,8.076c0,1.362-0.049,2.577-0.146,3.646
		c-0.098,1.07-0.322,2.291-0.674,3.664c-0.353,1.373-0.833,2.589-1.44,3.646c-0.608,1.057-1.483,2.096-2.625,3.117
		c-1.143,1.021-2.492,1.872-4.047,2.552c3.938,12.493,7.365,23.066,10.281,31.719H83.832L76.322,46.63h-2.188v30.224L60.863,76.854
		L60.863,76.854z M74.134,38.536h3.792c1.021,0,1.896-0.34,2.625-1.021c0.729-0.68,1.258-1.543,1.586-2.589
		c0.328-1.045,0.559-2.005,0.693-2.88c0.133-0.875,0.2-1.701,0.2-2.479c0-0.778-0.055-1.58-0.164-2.406
		c-0.109-0.826-0.304-1.744-0.583-2.753c-0.28-1.008-0.742-1.835-1.385-2.479c-0.644-0.644-1.428-0.966-2.352-0.966h-4.412
		L74.134,38.536L74.134,38.536z"/>
	<path fill="#FFFFFF" d="M99.51,57.421l12.839-2.471c0,1.276,0.023,2.401,0.07,3.375c0.046,0.974,0.168,2.036,0.365,3.184
		c0.197,1.148,0.464,2.088,0.8,2.818c0.336,0.731,0.812,1.346,1.427,1.844c0.614,0.499,1.34,0.748,2.175,0.748
		c2.505,0,3.758-1.601,3.758-4.802c0-4.384-2.471-8.745-7.411-13.083l-3.932-3.34c-1.253-1.044-2.25-1.914-2.992-2.61
		c-0.743-0.696-1.618-1.635-2.627-2.818c-1.009-1.183-1.798-2.325-2.366-3.427c-0.569-1.101-1.056-2.43-1.461-3.984
		c-0.406-1.554-0.609-3.201-0.609-4.941c0-5.08,1.612-9.099,4.837-12.057c3.224-2.958,7.504-4.436,12.839-4.436
		c4.43,0,8.2,1.578,11.308,4.732c3.108,3.155,4.663,6.959,4.663,11.413l-0.035,0.452c0,0.302,0,0.65,0,1.044l-13.083,1.809
		c0-0.255,0.017-0.655,0.052-1.2c0.035-0.545,0.052-0.992,0.052-1.34c0-0.835-0.058-1.635-0.174-2.401
		c-0.116-0.766-0.308-1.531-0.574-2.297c-0.267-0.766-0.679-1.374-1.235-1.827c-0.557-0.452-1.23-0.679-2.018-0.679
		c-1.392,0-2.436,0.545-3.132,1.635c-0.696,1.091-1.044,2.378-1.044,3.862c0,1.299,0.203,2.517,0.609,3.653
		c0.406,1.137,1.02,2.198,1.844,3.184c0.823,0.986,1.583,1.804,2.279,2.453c0.696,0.65,1.623,1.444,2.784,2.384
		c1.16,0.939,1.983,1.63,2.471,2.07c1.786,1.578,3.294,3.057,4.523,4.436c1.229,1.38,2.389,2.94,3.48,4.68
		c1.09,1.74,1.908,3.619,2.453,5.637c0.545,2.018,0.818,4.199,0.818,6.542c0,4.384-1.566,7.974-4.697,10.769
		c-3.132,2.796-6.936,4.193-11.413,4.193c-2.9,0-5.475-0.534-7.725-1.601c-2.25-1.067-4.066-2.517-5.445-4.349
		c-1.38-1.832-2.442-3.862-3.184-6.089C100.054,62.362,99.625,59.973,99.51,57.421z"/>
</g>
</svg>
