<?xml version="1.0" encoding="utf-8"?>
<!-- Generator: Adobe Illustrator 18.0.0, SVG Export Plug-In . SVG Version: 6.00 Build 0)  -->
<!DOCTYPE svg PUBLIC "-//W3C//DTD SVG 1.1//EN" "http://www.w3.org/Graphics/SVG/1.1/DTD/svg11.dtd">
<svg version="1.1" id="Calque_1" xmlns="http://www.w3.org/2000/svg" xmlns:xlink="http://www.w3.org/1999/xlink" x="0px" y="0px"
	 viewBox="0 0 200 200" enable-background="new 0 0 200 200" xml:space="preserve">
<polygon fill="#D61212" points="100,2 100,2 100,2 9.2,34.3 23.1,154.3 100,196.9 100,196.9 100,196.9 176.9,154.3 190.7,34.3 "/>
<polygon fill="#BA1111" points="100,2 100,23.6 100,23.5 100,122.2 100,122.2 100,196.9 100,196.9 176.9,154.3 190.7,34.3 "/>
<g>
	<path fill="#FFFFFF" d="M73.3,84.4l-11.9,37.7L49.3,84.4v62L36,146.1V43.5h13.7l11.6,34.4l11.4-34.4h13.9v102.7H73.3V84.4z"/>
	<path fill="#FFFFFF" d="M107.7,95.4l12.1,50.9h-13.3L95,98.3h-8l0.1,47.9H73.8V43.5h22.6c4.8,0,9.1,1.2,13,3.5
		c6.7,4.8,10,13,10,24.6c0,5.6-1.2,10.6-3.5,15c-1.8,3.6-4,6.2-6.5,7.7C108.9,94.6,108.4,95,107.7,95.4z M87,86.3h8.3
		c6.5,0,9.8-5.1,9.8-15.4c0-10.4-3.3-15.5-9.8-15.5H87V86.3z"/>
	<path fill="#FFFFFF" d="M139.5,77.6c1.6,2.5,4.4,5.8,8.5,9.9c7.4,7.7,12.5,14.5,15.1,20.4c2,4.5,3,9.9,3,16.2
		c0,6.2-1.9,11.4-5.8,15.7c-4.4,4.8-10.4,7.2-18.2,7.2c-6.4,0-11.5-2.4-15.3-7.2c-3.7-4.5-5.6-10.4-5.8-17.7h13.7
		c0,3.4,0.8,6.2,2.4,8.5c1.6,2.2,3.7,3.3,6.2,3.3c5.8,0,8.7-3.6,8.7-10.8c0-4.9-1.1-9.4-3.3-13.5c-1.8-3.2-4.7-6.9-8.9-11.2
		c-12.1-12.1-18.1-23.4-18.1-34.1c0-6.2,1.6-11.2,4.9-15c3.9-4.4,9.7-6.5,17.5-6.5c6.9,0,12.3,2.4,16.2,7.2
		c3.2,3.9,5.1,9.1,5.5,15.4h-13c-0.6-6.5-3.6-9.8-9.1-9.8c-5.9,0-8.9,3-8.9,9C134.9,68.8,136.5,73.2,139.5,77.6z"/>
</g>
</svg>
